<svg xmlns="http://www.w3.org/2000/svg" xmlns:xlink="http://www.w3.org/1999/xlink" data-noselect="" viewBox="80 185 640 230" width="640" height="230" preserveAspectRatio="none" version="1.1" class="svg-canvas">
<svg data-v-97fc22ee="" data-noselect="" viewBox="0 0 800 600" width="800" height="600" preserveAspectRatio="none" version="1.1" xmlns="http://www.w3.org/2000/svg" xmlns:xlink="http://www.w3.org/1999/xlink" class="svg-canvas"><defs data-v-97fc22ee=""></defs> <g data-v-97fc22ee="" id="background" data-noselect=""><rect x="0" y="0" fill="transparent" width="800" height="600" data-noselect=""></rect> <!----></g></svg><svg data-v-97fc22ee="" id="shape_B8KZYQoAUB" data-noselect="" viewBox="0 0 800 600" width="800" height="600" preserveAspectRatio="none" version="1.1" xmlns="http://www.w3.org/2000/svg" xmlns:xlink="http://www.w3.org/1999/xlink" class="svg-canvas"><defs data-v-97fc22ee=""></defs> <!----> <!----> <g data-v-97fc22ee="" mask=""><g data-v-97fc22ee="" transform="translate(-22.72725028883002,-126.00029492554) rotate(0,529.153350117,426.153350117) scale(1,1)" filter="" style="opacity: 1;"><g data-v-97fc22ee=""><svg xmlns="http://www.w3.org/2000/svg" version="1.1" xmlns:xlink="http://www.w3.org/1999/xlink" width="1058.306700234" height="852.306700234" viewBox="0 0 1058.306700234 852.306700234" data-ligature="true" data-parent="shape_B8KZYQoAUB"><g data-role="text" data-width="347.01893201126535" data-height="142" transform="translate(355.153350117, 355.153350117)"><path d="M18.35-43.68L43.09-43.68L40.96-41.43L103.46-41.43L98.61-6.75Q98.14-3.31 95.53-1.12Q92.93 1.07 89.50 1.07L89.50 1.07L66.06 1.07L76.59-10.06L78.25-21.66L58.24 1.07L36.82 1.07L64.28-30.19L57.53-30.19L30.07 1.07L8.64 1.07L36.11-30.19L30.66-30.19L24.50-23.44L4.26-23.44L20.48-41.20L18.35-43.68ZM16.45-45.93L20.83-77.42L16.93-81.92L104.65-81.92L99.68-45.93L16.45-45.93ZM42.74-72.92L42.02-68.42L80.26-68.42L80.97-72.92L42.74-72.92ZM40.13-54.93L78.37-54.93L78.96-59.43L40.72-59.43L40.13-54.93Z" transform="translate(0 112) " fill="#FFFFFF" stroke="#FFFFFF" stroke-width="0.197" data-glyph-w="107.89934467820582" data-glyph-h="153.894" data-glyph-ascender="118.38" data-glyph-descender="-35.514" data-kerning="0"></path><path d="M5.33-0.36L10.77-38.95L94.70-38.95L89.26-0.36L5.33-0.36ZM32.20-84.17L29.24-79.79L60.73-79.79L58.95-67.71L43.33-67.71L42.97-65.35L58.83-65.35L57.30-54.22L49.48-54.22L56.94-41.43L36.70-41.43L31.73-49.84L24.62-41.31L2.96-41.31L15.51-54.22L3.31-54.22L4.85-65.35L24.27-65.35L24.62-67.71L21.19-67.71L20.83-67.12L4.85-67.12L14.92-82.51L11.84-84.17L32.20-84.17ZM57.65-41.79L63.21-81.09L105.83-81.09L100.27-41.79L57.65-41.79ZM30.07-28.77L29.36-24.03L72.80-24.03L73.51-28.77L30.07-28.77ZM27.46-10.65L70.91-10.65L71.50-14.92L28.06-14.92L27.46-10.65ZM77.07-52.80L85.23-52.80L87.48-69.49L79.31-69.49L77.07-52.80Z" transform="translate(107.89934467820582 112) " fill="#FFFFFF" stroke="#FFFFFF" stroke-width="0.197" data-glyph-w="107.89934467820582" data-glyph-h="153.894" data-glyph-ascender="118.38" data-glyph-descender="-35.514" data-kerning="0"></path><path d="M27.82-74.11L74.46-74.11L83.46-7.10L63.10-7.10L60.73-25.33L32.32-25.33L24.39-7.10L5.09-7.10L31.25-70.79L27.82-74.11ZM56.23-62.74L48.30-62.74L36.93-36.70L59.66-36.70L56.23-62.74Z" transform="translate(215.79868935641164 112) " fill="#FFFFFF" stroke="#FFFFFF" stroke-width="0.197" data-glyph-w="87.53798467820582" data-glyph-h="153.894" data-glyph-ascender="118.38" data-glyph-descender="-35.514" data-kerning="0"></path><path d="M10.42-74.11L37.76-74.11L27.46-7.10L5.92-7.10L13.85-69.61L10.42-74.11Z" transform="translate(303.33667403461743 112) " fill="#FFFFFF" stroke="#FFFFFF" stroke-width="0.197" data-glyph-w="42.67196467820583" data-glyph-h="153.894" data-glyph-ascender="118.38" data-glyph-descender="-35.514" data-kerning="0"></path></g></svg></g></g></g></svg><svg data-v-97fc22ee="" id="shape_mFgMBkUoGT" data-noselect="" viewBox="0 0 800 600" width="800" height="600" preserveAspectRatio="none" version="1.1" xmlns="http://www.w3.org/2000/svg" xmlns:xlink="http://www.w3.org/1999/xlink" class="svg-canvas"><defs data-v-97fc22ee=""></defs> <!----> <!----> <g data-v-97fc22ee="" mask=""><g data-v-97fc22ee="" transform="translate(119.27287322120927,257.65346868843) rotate(0,105.78680519242073,41.89998330977) scale(1,1)" filter="" style="opacity: 1;"><g data-v-97fc22ee=""><rect fill="rgba(0,0,0,0)" width="230.11935682727" height="103.22396661954" x="-10" y="-10"></rect><svg data-noselect="" viewBox="138.22942050359845 264.06287793295525 174.7013402054472 69.19561683980956" width="211.57361038485146" height="83.79996661953999" ref="svg_canvas" preserveAspectRatio="none" version="1.1" xmlns="http://www.w3.org/2000/svg" style="background: transparent;" class="style-removed" data-parent="shape_mFgMBkUoGT">
    <defs></defs>
    
        <g id="shape_y3wXr2JKTd" class="icon custom-icon text brand_word_letter" ref="shape_y3wXr2JKTd" key="shape_y3wXr2JKTd" mask="">
          <g transform="translate(-130.851450572579,-4.916832290549024) rotate(0,349.437518643409,311.437518643409) scale(1,1)" style="" filter="" cursor="move" display="inline" opacity="1">
              <g style="" display="inline"><svg xmlns="http://www.w3.org/2000/svg" version="1.1" xmlns:xlink="http://www.w3.org/1999/xlink" width="698.875037286818" height="622.875037286818" viewBox="0 0 698.875037286818 622.875037286818" data-ligature="true" preserveAspectRatio="none" data-parent="shape_y3wXr2JKTd"><g data-role="text" data-width="178.01842767090017" data-height="103" transform="translate(260.91909097250885, 259.937518643409)"><path d="M24.79 0L24.79-25.72L1.57-66.72L40.83-66.72L62.91-28.01L62.91 0L24.79 0ZM86.90-66.72L66.47-33.34L47.39-66.72L86.90-66.72Z" transform="translate(0 77) skewX(-7)" fill="rgb(255, 255, 255)" stroke="#ffffff" stroke-width="0.11890420995238443" data-glyph-w="85.91052860590082" data-glyph-h="81.95363769531251" data-glyph-ascender="67.2299072265625" data-glyph-descender="-14.72373046875" data-kerning="0" stroke-dasharray=""></path><path d="M87.41 0L55.47 0L87.41-54.83L87.41 0ZM48.78 0L3.13 0L42.48-66.72L87.16-66.72L87.24-65.83L48.78 0ZM36.13-66.72L4.87-14.39L4.87-66.72L36.13-66.72Z" transform="translate(85.91052860590082 77) skewX(-7)" fill="rgb(255, 255, 255)" stroke="#ffffff" stroke-width="0.11890420995238443" data-glyph-w="91.36846317621333" data-glyph-h="81.95363769531251" data-glyph-ascender="67.2299072265625" data-glyph-descender="-14.72373046875" data-kerning="0" stroke-dasharray=""></path></g></svg></g>
          </g>
        </g>
  </svg></g></g></g></svg>





</svg>