<svg xmlns="http://www.w3.org/2000/svg" xmlns:xlink="http://www.w3.org/1999/xlink" data-noselect="" viewBox="107 231 234 138" width="234" height="138" preserveAspectRatio="none" version="1.1" class="svg-canvas">
<svg data-v-97fc22ee="" data-noselect="" viewBox="0 0 800 600" width="800" height="600" preserveAspectRatio="none" version="1.1" xmlns="http://www.w3.org/2000/svg" xmlns:xlink="http://www.w3.org/1999/xlink" class="svg-canvas"><defs data-v-97fc22ee=""></defs> <g data-v-97fc22ee="" id="background" data-noselect=""><rect x="0" y="0" fill="transparent" width="800" height="600" data-noselect=""></rect> <!----></g></svg><svg data-v-97fc22ee="" id="shape_mFgMBkUoGT" data-noselect="" viewBox="0 0 800 600" width="800" height="600" preserveAspectRatio="none" version="1.1" xmlns="http://www.w3.org/2000/svg" xmlns:xlink="http://www.w3.org/1999/xlink" class="svg-canvas"><defs data-v-97fc22ee=""></defs> <!----> <!----> <g data-v-97fc22ee="" mask=""><g data-v-97fc22ee="" transform="translate(119.27287322120927,257.65346868843) rotate(0,105.78680519242073,41.89998330977) scale(1,1)" filter="" style="opacity: 1;"><g data-v-97fc22ee=""><rect fill="rgba(0,0,0,0)" width="230.11935682727" height="103.22396661954" x="-10" y="-10"></rect><svg data-noselect="" viewBox="138.22942050359845 264.06287793295525 174.7013402054472 69.19561683980956" width="211.57361038485146" height="83.79996661953999" ref="svg_canvas" preserveAspectRatio="none" version="1.1" xmlns="http://www.w3.org/2000/svg" style="background: transparent;" class="style-removed" data-parent="shape_mFgMBkUoGT">
    <defs></defs>

        <g id="shape_y3wXr2JKTd" class="icon custom-icon text brand_word_letter" ref="shape_y3wXr2JKTd" key="shape_y3wXr2JKTd" mask="">
          <g transform="translate(-130.851450572579,-4.916832290549024) rotate(0,349.437518643409,311.437518643409) scale(1,1)" style="" filter="" cursor="move" display="inline" opacity="1">
              <g style="" display="inline"><svg xmlns="http://www.w3.org/2000/svg" version="1.1" xmlns:xlink="http://www.w3.org/1999/xlink" width="698.875037286818" height="622.875037286818" viewBox="0 0 698.875037286818 622.875037286818" data-ligature="true" preserveAspectRatio="none" data-parent="shape_y3wXr2JKTd"><g data-role="text" data-width="178.01842767090017" data-height="103" transform="translate(260.91909097250885, 259.937518643409)"><path d="M24.79 0L24.79-25.72L1.57-66.72L40.83-66.72L62.91-28.01L62.91 0L24.79 0ZM86.90-66.72L66.47-33.34L47.39-66.72L86.90-66.72Z" transform="translate(0 77) skewX(-7)" fill="rgb(0, 0, 0)" stroke="#000000" stroke-width="0.11890420995238443" data-glyph-w="85.91052860590082" data-glyph-h="81.95363769531251" data-glyph-ascender="67.2299072265625" data-glyph-descender="-14.72373046875" data-kerning="0" stroke-dasharray=""></path><path d="M87.41 0L55.47 0L87.41-54.83L87.41 0ZM48.78 0L3.13 0L42.48-66.72L87.16-66.72L87.24-65.83L48.78 0ZM36.13-66.72L4.87-14.39L4.87-66.72L36.13-66.72Z" transform="translate(85.91052860590082 77) skewX(-7)" fill="rgb(0, 0, 0)" stroke="#000000" stroke-width="0.11890420995238443" data-glyph-w="91.36846317621333" data-glyph-h="81.95363769531251" data-glyph-ascender="67.2299072265625" data-glyph-descender="-14.72373046875" data-kerning="0" stroke-dasharray=""></path></g></svg></g>
          </g>
        </g>
  </svg></g></g></g></svg>



</svg>
